<svg width="1323" height="617" fill="none" xmlns="http://www.w3.org/2000/svg"><g opacity=".3" clip-path="url(#clip0)"><path d="M132.222 443.983c47.934 0 86.793-33.115 86.793-73.964s-38.859-73.963-86.793-73.963c-47.935 0-86.793 33.114-86.793 73.963s38.858 73.964 86.793 73.964z" fill="url(#paint0_radial)"/><path d="M884.845 519.718c0-4.77-4.539-8.638-10.135-8.638-5.597 0-10.154 3.868-10.154 8.638 0 4.769 4.539 8.653 10.154 8.653 5.596 0 10.135-3.884 10.135-8.653z" fill="url(#paint1_radial)"/><path d="M1329 16.079c0-4.77-4.54-8.653-10.14-8.653-5.59 0-10.15 3.868-10.15 8.653 0 4.77 4.54 8.653 10.15 8.653 5.6-.015 10.14-3.884 10.14-8.653z" fill="url(#paint2_radial)"/><path d="M229.661 53.224c2.517 0 4.557-1.74 4.557-3.884 0-2.145-2.04-3.884-4.557-3.884-2.517 0-4.558 1.739-4.558 3.884 0 2.145 2.041 3.884 4.558 3.884z" fill="url(#paint3_radial)"/><path d="M632.525 356.939c2.517 0 4.557-1.739 4.557-3.884 0-2.145-2.04-3.884-4.557-3.884-2.517 0-4.558 1.739-4.558 3.884 0 2.145 2.041 3.884 4.558 3.884z" fill="url(#paint4_radial)"/><path d="M1180.04 62.002c2.52 0 4.56-1.74 4.56-3.884 0-2.145-2.04-3.884-4.56-3.884-2.51 0-4.55 1.739-4.55 3.884 0 2.145 2.04 3.883 4.55 3.883z" fill="url(#paint5_radial)"/><path d="M928.214 250.01c0-4.769-4.539-8.653-10.154-8.653-5.596 0-10.154 3.868-10.154 8.653 0 4.769 4.54 8.653 10.154 8.653 5.597-.015 10.154-3.884 10.154-8.653z" fill="url(#paint6_radial)"/><path opacity=".2" d="M461.71 189.437c0-4.769-4.539-8.653-10.154-8.653-5.597 0-10.154 3.868-10.154 8.653 0 4.77 4.539 8.653 10.154 8.653 5.615-.015 10.154-3.883 10.154-8.653z" fill="url(#paint7_radial)"/><path opacity=".2" d="M81.087 189.437c0-4.769-4.54-8.653-10.154-8.653-5.597 0-10.154 3.868-10.154 8.653 0 4.77 4.539 8.653 10.154 8.653 5.596-.015 10.154-3.883 10.154-8.653z" fill="url(#paint8_radial)"/><path opacity=".2" d="M995.993 432.829c0-4.77-4.539-8.638-10.154-8.638-5.596 0-10.136 3.868-10.136 8.638 0 4.769 4.54 8.653 10.136 8.653 5.615-.016 10.154-3.884 10.154-8.653z" fill="url(#paint9_radial)"/><path opacity=".2" d="M658.211 502.427c0-4.769-4.54-8.637-10.136-8.637-5.597 0-10.154 3.868-10.154 8.637s4.539 8.653 10.154 8.653c5.596 0 10.136-3.884 10.136-8.653z" fill="url(#paint10_radial)"/><path opacity=".2" d="M168.9 274.571c0-4.77-4.539-8.654-10.154-8.654-5.596 0-10.154 3.869-10.154 8.654 0 4.769 4.54 8.653 10.154 8.653 5.615-.016 10.154-3.884 10.154-8.653z" fill="url(#paint11_radial)"/><path opacity=".2" d="M1299.9 221.969c0-4.77-4.53-8.654-10.15-8.654-5.61 0-10.14 3.869-10.14 8.654 0 4.769 4.54 8.653 10.14 8.653 5.6 0 10.15-3.869 10.15-8.653z" fill="url(#paint12_radial)"/><path d="M438.412 541.033c0-4.77-4.539-8.638-10.136-8.638-5.596 0-10.154 3.868-10.154 8.638 0 4.769 4.539 8.653 10.154 8.653 5.597 0 10.136-3.869 10.136-8.653z" fill="url(#paint13_radial)"/><path d="M1241.26 336.324c0-4.769-4.54-8.637-10.15-8.637-5.6 0-10.14 3.868-10.14 8.637 0 4.77 4.54 8.638 10.14 8.638 5.61 0 10.15-3.868 10.15-8.638z" fill="url(#paint14_radial)"/><path d="M1218.8 238.078c0-4.769-4.54-8.653-10.15-8.653-5.6 0-10.14 3.869-10.14 8.653 0 4.77 4.54 8.654 10.14 8.654 5.61-.016 10.15-3.884 10.15-8.654z" fill="url(#paint15_radial)"/><path d="M1082.95 90.788c2.52 0 4.56-1.739 4.56-3.884 0-2.145-2.04-3.883-4.56-3.883-2.52 0-4.56 1.738-4.56 3.883s2.04 3.884 4.56 3.884z" fill="url(#paint16_radial)"/><path d="M304.896 241.962c2.517 0 4.557-1.738 4.557-3.883s-2.04-3.884-4.557-3.884c-2.517 0-4.558 1.739-4.558 3.884 0 2.145 2.041 3.883 4.558 3.883z" fill="url(#paint17_radial)"/><path d="M820.311 303.669c0-2.144-2.041-3.884-4.557-3.884-2.516 0-4.558 1.74-4.558 3.884s2.042 3.884 4.558 3.884c2.534 0 4.557-1.74 4.557-3.884z" fill="url(#paint18_radial)"/><path d="M75.49 102.735c2.517 0 4.558-1.739 4.558-3.884 0-2.145-2.04-3.884-4.558-3.884-2.517 0-4.557 1.74-4.557 3.884 0 2.145 2.04 3.884 4.557 3.884z" fill="url(#paint19_radial)"/><path d="M1019.71 298.076c2.52 0 4.56-1.739 4.56-3.884 0-2.145-2.04-3.884-4.56-3.884-2.52 0-4.56 1.739-4.56 3.884 0 2.145 2.04 3.884 4.56 3.884z" fill="url(#paint20_radial)"/><path d="M986.806 336.324c2.517 0 4.557-1.739 4.557-3.884 0-2.145-2.04-3.883-4.557-3.883-2.517 0-4.558 1.738-4.558 3.883s2.041 3.884 4.558 3.884z" fill="url(#paint21_radial)"/><path d="M1127.6 413.145c0-4.769-4.54-8.637-10.16-8.637-5.6 0-10.13 3.868-10.13 8.637 0 4.77 4.53 8.654 10.13 8.654 5.62 0 10.16-3.869 10.16-8.654z" fill="url(#paint22_radial)"/><path opacity=".2" d="M958.95 519.422c0-4.769-4.539-8.653-10.154-8.653-5.597 0-10.136 3.868-10.136 8.653 0 4.77 4.539 8.638 10.136 8.638 5.597 0 10.154-3.868 10.154-8.638z" fill="url(#paint23_radial)"/><path d="M1094.95 486.814c2.51 0 4.55-1.739 4.55-3.884 0-2.145-2.04-3.884-4.55-3.884-2.52 0-4.56 1.739-4.56 3.884 0 2.145 2.04 3.884 4.56 3.884z" fill="url(#paint24_radial)"/><path d="M1015.15 470.704c2.52 0 4.56-1.739 4.56-3.884 0-2.145-2.04-3.883-4.56-3.883-2.51 0-4.55 1.738-4.55 3.883s2.04 3.884 4.55 3.884z" fill="url(#paint25_radial)"/><path d="M458.447 241.31c2.517 0 4.557-1.739 4.557-3.884 0-2.145-2.04-3.884-4.557-3.884-2.517 0-4.558 1.739-4.558 3.884 0 2.145 2.041 3.884 4.558 3.884z" fill="url(#paint26_radial)"/><path d="M425.542 279.558c2.517 0 4.557-1.739 4.557-3.884 0-2.145-2.04-3.884-4.557-3.884-2.517 0-4.558 1.739-4.558 3.884 0 2.145 2.041 3.884 4.558 3.884z" fill="url(#paint27_radial)"/><path opacity=".2" d="M547.3 8.653c0-4.77-4.54-8.653-10.154-8.653-5.597 0-10.155 3.868-10.155 8.653 0 4.77 4.54 8.653 10.155 8.653 5.614-.015 10.154-3.884 10.154-8.653z" fill="url(#paint28_radial)"/><path d="M775.903 21.174c2.517 0 4.558-1.738 4.558-3.883s-2.041-3.884-4.558-3.884-4.557 1.739-4.557 3.884c0 2.145 2.04 3.883 4.557 3.883z" fill="url(#paint29_radial)"/><path d="M687.415 54.233c2.517 0 4.558-1.738 4.558-3.883s-2.041-3.884-4.558-3.884-4.558 1.739-4.558 3.884c0 2.145 2.041 3.883 4.558 3.883z" fill="url(#paint30_radial)"/><path d="M544.036 60.526c2.517 0 4.558-1.74 4.558-3.884 0-2.145-2.041-3.884-4.558-3.884s-4.557 1.739-4.557 3.884c0 2.145 2.04 3.883 4.557 3.883z" fill="url(#paint31_radial)"/><path d="M533.153 367.628c2.517 0 4.558-1.739 4.558-3.884 0-2.145-2.041-3.884-4.558-3.884s-4.557 1.739-4.557 3.884c0 2.145 2.04 3.884 4.557 3.884z" fill="url(#paint32_radial)"/><path opacity=".2" d="M309.854 377.508c0-4.769-4.539-8.653-10.154-8.653-5.596 0-10.154 3.868-10.154 8.653 0 4.77 4.54 8.638 10.154 8.638 5.615.015 10.154-3.853 10.154-8.638z" fill="url(#paint33_radial)"/><path opacity=".2" d="M397.686 462.642c0-4.77-4.539-8.638-10.154-8.638-5.614 0-10.154 3.868-10.154 8.638 0 4.769 4.54 8.653 10.154 8.653 5.615 0 10.154-3.869 10.154-8.653z" fill="url(#paint34_radial)"/><path d="M453.889 413.938c2.517 0 4.558-1.739 4.558-3.884 0-2.145-2.041-3.884-4.558-3.884s-4.557 1.739-4.557 3.884c0 2.145 2.04 3.884 4.557 3.884z" fill="url(#paint35_radial)"/><path d="M46.596 501.604c0-10.968-10.428-19.854-23.298-19.854C10.428 481.75 0 490.636 0 501.604s10.428 19.854 23.298 19.854c12.87 0 23.298-8.886 23.298-19.854z" fill="url(#paint36_radial)"/><path d="M199.509 495.685c11.205 0 20.29-7.741 20.29-17.291 0-9.549-9.085-17.29-20.29-17.29-11.206 0-20.29 7.741-20.29 17.29 0 9.55 9.084 17.291 20.29 17.291z" fill="url(#paint37_radial)"/><path d="M456.569 608.346c0-4.769-4.539-8.638-10.154-8.638-5.597 0-10.154 3.869-10.154 8.638s4.539 8.653 10.154 8.653 10.154-3.868 10.154-8.653z" fill="url(#paint38_radial)"/><path opacity=".2" d="M567.717 521.458c0-4.769-4.539-8.638-10.154-8.638-5.597 0-10.154 3.869-10.154 8.638s4.539 8.653 10.154 8.653c5.615-.015 10.154-3.884 10.154-8.653z" fill="url(#paint39_radial)"/><path opacity=".2" d="M229.934 591.056c0-4.77-4.539-8.638-10.154-8.638-5.596 0-10.154 3.868-10.154 8.638 0 4.769 4.539 8.653 10.154 8.653s10.154-3.869 10.154-8.653z" fill="url(#paint40_radial)"/><path opacity=".2" d="M442.842 522.918c0-4.77-4.539-8.653-10.154-8.653-5.597 0-10.154 3.868-10.154 8.653s4.539 8.637 10.154 8.637 10.154-3.868 10.154-8.637z" fill="url(#paint41_radial)"/><path opacity=".2" d="M530.674 608.052c0-4.77-4.539-8.654-10.154-8.654-5.597 0-10.154 3.869-10.154 8.654 0 4.769 4.539 8.637 10.154 8.637 5.596 0 10.154-3.868 10.154-8.637z" fill="url(#paint42_radial)"/><path d="M586.877 559.333c2.517 0 4.557-1.739 4.557-3.884 0-2.145-2.04-3.884-4.557-3.884-2.517 0-4.558 1.739-4.558 3.884 0 2.145 2.041 3.884 4.558 3.884z" fill="url(#paint43_radial)"/><path d="M437.264 436.216c2.517 0 4.557-1.739 4.557-3.884 0-2.145-2.04-3.884-4.557-3.884-2.517 0-4.558 1.739-4.558 3.884 0 2.145 2.041 3.884 4.558 3.884z" fill="url(#paint44_radial)"/><path d="M138.055 445.009c0-4.77-4.539-8.638-10.154-8.638-5.596 0-10.154 3.868-10.154 8.638 0 4.769 4.54 8.653 10.154 8.653 5.615 0 10.154-3.868 10.154-8.653z" fill="url(#paint45_radial)"/><path d="M105.406 518.677c2.517 0 4.557-1.739 4.557-3.883 0-2.145-2.04-3.884-4.557-3.884-2.517 0-4.558 1.739-4.558 3.884 0 2.144 2.041 3.883 4.558 3.883z" fill="url(#paint46_radial)"/><path d="M25.613 502.567c2.517 0 4.558-1.739 4.558-3.884 0-2.145-2.04-3.884-4.558-3.884-2.517 0-4.557 1.739-4.557 3.884 0 2.145 2.04 3.884 4.557 3.884z" fill="url(#paint47_radial)"/><path d="M1246.25 542.726c12.87 0 23.3-8.889 23.3-19.854s-10.43-19.854-23.3-19.854c-12.86 0-23.29 8.889-23.29 19.854s10.43 19.854 23.29 19.854z" fill="url(#paint48_radial)"/><path d="M1070.06 563.372c11.21 0 20.29-7.741 20.29-17.291 0-9.549-9.08-17.29-20.29-17.29-11.2 0-20.29 7.741-20.29 17.29 0 9.55 9.09 17.291 20.29 17.291z" fill="url(#paint49_radial)"/><path opacity=".2" d="M701.835 503.018c0 4.769 4.539 8.638 10.136 8.638 5.596 0 10.154-3.869 10.154-8.638s-4.539-8.653-10.154-8.653c-5.597 0-10.136 3.884-10.136 8.653z" fill="url(#paint50_radial)"/><path opacity=".2" d="M1039.62 433.419c0 4.77 4.54 8.638 10.13 8.638 5.6 0 10.14-3.868 10.14-8.638 0-4.769-4.54-8.637-10.14-8.637-5.59-.016-10.13 3.853-10.13 8.637z" fill="url(#paint51_radial)"/><path opacity=".2" d="M826.71 501.557c0 4.769 4.539 8.653 10.136 8.653 5.597 0 10.154-3.868 10.154-8.653 0-4.769-4.539-8.638-10.154-8.638-5.597 0-10.136 3.869-10.136 8.638z" fill="url(#paint52_radial)"/><path d="M832.288 596.027c2.517 0 4.558-1.738 4.558-3.883s-2.041-3.884-4.558-3.884-4.557 1.739-4.557 3.884c0 2.145 2.04 3.883 4.557 3.883z" fill="url(#paint53_radial)"/><path d="M1131.5 579.452c0 4.769 4.54 8.653 10.15 8.653 5.6 0 10.14-3.869 10.14-8.653 0-4.77-4.54-8.638-10.14-8.638-5.61 0-10.15 3.868-10.15 8.638z" fill="url(#paint54_radial)"/><path d="M1164.15 513.566c2.51 0 4.55-1.739 4.55-3.884 0-2.145-2.04-3.884-4.55-3.884-2.52 0-4.56 1.739-4.56 3.884 0 2.145 2.04 3.884 4.56 3.884z" fill="url(#paint55_radial)"/><path d="M1243.94 529.676c2.52 0 4.56-1.739 4.56-3.883 0-2.145-2.04-3.884-4.56-3.884-2.52 0-4.56 1.739-4.56 3.884 0 2.144 2.04 3.883 4.56 3.883z" fill="url(#paint56_radial)"/><path d="M304.276 290.821c2.517 0 4.558-1.739 4.558-3.884 0-2.145-2.041-3.884-4.558-3.884s-4.557 1.739-4.557 3.884c0 2.145 2.04 3.884 4.557 3.884z" fill="url(#paint57_radial)"/></g><defs><radialGradient id="paint0_radial" cx="0" cy="0" r="1" gradientUnits="userSpaceOnUse" gradientTransform="matrix(86.784 0 0 73.9561 132.222 370.018)"><stop offset=".564" stop-color="#DE0000"/><stop offset=".631" stop-color="#DA0000"/><stop offset=".691" stop-color="#D00000"/><stop offset=".747" stop-color="#BE0000"/><stop offset=".802" stop-color="#A40000"/><stop offset=".856" stop-color="#830000"/><stop offset=".908" stop-color="#5B0000"/><stop offset=".959" stop-color="#2C0000"/><stop offset="1"/></radialGradient><radialGradient id="paint1_radial" cx="0" cy="0" r="1" gradientUnits="userSpaceOnUse" gradientTransform="matrix(10.1457 0 0 8.64601 874.702 519.72)"><stop offset=".564" stop-color="#F50000"/><stop offset=".628" stop-color="#F10000"/><stop offset=".685" stop-color="#E70000"/><stop offset=".739" stop-color="#D50000"/><stop offset=".792" stop-color="#B00"/><stop offset=".843" stop-color="#9A0000"/><stop offset=".893" stop-color="#720000"/><stop offset=".943" stop-color="#420000"/><stop offset=".991" stop-color="#0C0000"/><stop offset="1"/></radialGradient><radialGradient id="paint2_radial" cx="0" cy="0" r="1" gradientUnits="userSpaceOnUse" gradientTransform="matrix(10.1457 0 0 8.64602 1318.85 16.078)"><stop offset=".564" stop-color="#F50000"/><stop offset=".628" stop-color="#F10000"/><stop offset=".685" stop-color="#E70000"/><stop offset=".739" stop-color="#D50000"/><stop offset=".792" stop-color="#B00"/><stop offset=".843" stop-color="#9A0000"/><stop offset=".893" stop-color="#720000"/><stop offset=".943" stop-color="#420000"/><stop offset=".991" stop-color="#0C0000"/><stop offset="1"/></radialGradient><radialGradient id="paint3_radial" cx="0" cy="0" r="1" gradientUnits="userSpaceOnUse" gradientTransform="matrix(4.55748 0 0 3.88383 229.668 49.337)"><stop offset=".564" stop-color="#F50000"/><stop offset=".628" stop-color="#F10000"/><stop offset=".685" stop-color="#E70000"/><stop offset=".739" stop-color="#D50000"/><stop offset=".792" stop-color="#B00"/><stop offset=".843" stop-color="#9A0000"/><stop offset=".893" stop-color="#720000"/><stop offset=".943" stop-color="#420000"/><stop offset=".991" stop-color="#0C0000"/><stop offset="1"/></radialGradient><radialGradient id="paint4_radial" cx="0" cy="0" r="1" gradientUnits="userSpaceOnUse" gradientTransform="matrix(4.5575 0 0 3.88383 632.528 353.057)"><stop offset=".564" stop-color="#F50000"/><stop offset=".628" stop-color="#F10000"/><stop offset=".685" stop-color="#E70000"/><stop offset=".739" stop-color="#D50000"/><stop offset=".792" stop-color="#B00"/><stop offset=".843" stop-color="#9A0000"/><stop offset=".893" stop-color="#720000"/><stop offset=".943" stop-color="#420000"/><stop offset=".991" stop-color="#0C0000"/><stop offset="1"/></radialGradient><radialGradient id="paint5_radial" cx="0" cy="0" r="1" gradientUnits="userSpaceOnUse" gradientTransform="matrix(4.5575 0 0 3.88382 1180.04 58.124)"><stop offset=".564" stop-color="#F50000"/><stop offset=".628" stop-color="#F10000"/><stop offset=".685" stop-color="#E70000"/><stop offset=".739" stop-color="#D50000"/><stop offset=".792" stop-color="#B00"/><stop offset=".843" stop-color="#9A0000"/><stop offset=".893" stop-color="#720000"/><stop offset=".943" stop-color="#420000"/><stop offset=".991" stop-color="#0C0000"/><stop offset="1"/></radialGradient><radialGradient id="paint6_radial" cx="0" cy="0" r="1" gradientUnits="userSpaceOnUse" gradientTransform="matrix(10.1457 0 0 8.64601 918.061 250.006)"><stop offset=".564" stop-color="#6E008B"/><stop offset=".647" stop-color="#6B0087"/><stop offset=".72" stop-color="#63007D"/><stop offset=".79" stop-color="#54006B"/><stop offset=".858" stop-color="#400051"/><stop offset=".924" stop-color="#260030"/><stop offset=".988" stop-color="#070008"/><stop offset="1"/></radialGradient><radialGradient id="paint7_radial" cx="0" cy="0" r="1" gradientUnits="userSpaceOnUse" gradientTransform="matrix(10.1457 0 0 8.64601 451.571 189.43)"><stop offset=".564" stop-color="#EA8100"/><stop offset=".63" stop-color="#E67F00"/><stop offset=".688" stop-color="#DC7900"/><stop offset=".743" stop-color="#CA6F00"/><stop offset=".796" stop-color="#B06100"/><stop offset=".849" stop-color="#8F4F00"/><stop offset=".9" stop-color="#673900"/><stop offset=".95" stop-color="#371F00"/><stop offset=".999" stop-color="#010100"/><stop offset="1"/></radialGradient><radialGradient id="paint8_radial" cx="0" cy="0" r="1" gradientUnits="userSpaceOnUse" gradientTransform="matrix(10.1455 0 0 8.64585 70.935 189.43)"><stop offset=".564" stop-color="#EA8100"/><stop offset=".63" stop-color="#E67F00"/><stop offset=".688" stop-color="#DC7900"/><stop offset=".743" stop-color="#CA6F00"/><stop offset=".796" stop-color="#B06100"/><stop offset=".849" stop-color="#8F4F00"/><stop offset=".9" stop-color="#673900"/><stop offset=".95" stop-color="#371F00"/><stop offset=".999" stop-color="#010100"/><stop offset="1"/></radialGradient><radialGradient id="paint9_radial" cx="0" cy="0" r="1" gradientUnits="userSpaceOnUse" gradientTransform="matrix(10.1457 0 0 8.64604 985.851 432.822)"><stop offset=".564" stop-color="#EA8100"/><stop offset=".63" stop-color="#E67F00"/><stop offset=".688" stop-color="#DC7900"/><stop offset=".743" stop-color="#CA6F00"/><stop offset=".796" stop-color="#B06100"/><stop offset=".849" stop-color="#8F4F00"/><stop offset=".9" stop-color="#673900"/><stop offset=".95" stop-color="#371F00"/><stop offset=".999" stop-color="#010100"/><stop offset="1"/></radialGradient><radialGradient id="paint10_radial" cx="0" cy="0" r="1" gradientUnits="userSpaceOnUse" gradientTransform="matrix(10.1457 0 0 8.64601 648.066 502.428)"><stop offset=".564" stop-color="#EA8100"/><stop offset=".63" stop-color="#E67F00"/><stop offset=".688" stop-color="#DC7900"/><stop offset=".743" stop-color="#CA6F00"/><stop offset=".796" stop-color="#B06100"/><stop offset=".849" stop-color="#8F4F00"/><stop offset=".9" stop-color="#673900"/><stop offset=".95" stop-color="#371F00"/><stop offset=".999" stop-color="#010100"/><stop offset="1"/></radialGradient><radialGradient id="paint11_radial" cx="0" cy="0" r="1" gradientUnits="userSpaceOnUse" gradientTransform="matrix(10.1457 0 0 8.64601 158.754 274.565)"><stop offset=".564" stop-color="#EA8100"/><stop offset=".63" stop-color="#E67F00"/><stop offset=".688" stop-color="#DC7900"/><stop offset=".743" stop-color="#CA6F00"/><stop offset=".796" stop-color="#B06100"/><stop offset=".849" stop-color="#8F4F00"/><stop offset=".9" stop-color="#673900"/><stop offset=".95" stop-color="#371F00"/><stop offset=".999" stop-color="#010100"/><stop offset="1"/></radialGradient><radialGradient id="paint12_radial" cx="0" cy="0" r="1" gradientUnits="userSpaceOnUse" gradientTransform="matrix(10.1455 0 0 8.64586 1289.76 221.972)"><stop offset=".564" stop-color="#EA8100"/><stop offset=".63" stop-color="#E67F00"/><stop offset=".688" stop-color="#DC7900"/><stop offset=".743" stop-color="#CA6F00"/><stop offset=".796" stop-color="#B06100"/><stop offset=".849" stop-color="#8F4F00"/><stop offset=".9" stop-color="#673900"/><stop offset=".95" stop-color="#371F00"/><stop offset=".999" stop-color="#010100"/><stop offset="1"/></radialGradient><radialGradient id="paint13_radial" cx="0" cy="0" r="1" gradientUnits="userSpaceOnUse" gradientTransform="matrix(10.1455 0 0 8.64579 428.274 541.036)"><stop offset=".564" stop-color="#F50000"/><stop offset=".628" stop-color="#F10000"/><stop offset=".685" stop-color="#E70000"/><stop offset=".739" stop-color="#D50000"/><stop offset=".792" stop-color="#B00"/><stop offset=".843" stop-color="#9A0000"/><stop offset=".893" stop-color="#720000"/><stop offset=".943" stop-color="#420000"/><stop offset=".991" stop-color="#0C0000"/><stop offset="1"/></radialGradient><radialGradient id="paint14_radial" cx="0" cy="0" r="1" gradientUnits="userSpaceOnUse" gradientTransform="matrix(10.1448 0 0 8.64528 1231.12 336.324)"><stop offset=".564" stop-color="#F50000"/><stop offset=".628" stop-color="#F10000"/><stop offset=".685" stop-color="#E70000"/><stop offset=".739" stop-color="#D50000"/><stop offset=".792" stop-color="#B00"/><stop offset=".843" stop-color="#9A0000"/><stop offset=".893" stop-color="#720000"/><stop offset=".943" stop-color="#420000"/><stop offset=".991" stop-color="#0C0000"/><stop offset="1"/></radialGradient><radialGradient id="paint15_radial" cx="0" cy="0" r="1" gradientUnits="userSpaceOnUse" gradientTransform="matrix(10.1457 0 0 8.64603 1208.66 238.072)"><stop offset=".564" stop-color="#F50000"/><stop offset=".628" stop-color="#F10000"/><stop offset=".685" stop-color="#E70000"/><stop offset=".739" stop-color="#D50000"/><stop offset=".792" stop-color="#B00"/><stop offset=".843" stop-color="#9A0000"/><stop offset=".893" stop-color="#720000"/><stop offset=".943" stop-color="#420000"/><stop offset=".991" stop-color="#0C0000"/><stop offset="1"/></radialGradient><radialGradient id="paint16_radial" cx="0" cy="0" r="1" gradientUnits="userSpaceOnUse" gradientTransform="matrix(4.55743 0 0 3.88382 1082.95 86.907)"><stop offset=".564" stop-color="#7000B2"/><stop offset=".638" stop-color="#6E00AE"/><stop offset=".704" stop-color="#6700A4"/><stop offset=".766" stop-color="#5C0092"/><stop offset=".827" stop-color="#4C0078"/><stop offset=".886" stop-color="#370057"/><stop offset=".943" stop-color="#1E002F"/><stop offset=".999" stop-color="#000001"/><stop offset="1"/></radialGradient><radialGradient id="paint17_radial" cx="0" cy="0" r="1" gradientUnits="userSpaceOnUse" gradientTransform="matrix(4.55748 0 0 3.88383 304.905 238.073)"><stop offset=".564" stop-color="#7000B2"/><stop offset=".638" stop-color="#6E00AE"/><stop offset=".704" stop-color="#6700A4"/><stop offset=".766" stop-color="#5C0092"/><stop offset=".827" stop-color="#4C0078"/><stop offset=".886" stop-color="#370057"/><stop offset=".943" stop-color="#1E002F"/><stop offset=".999" stop-color="#000001"/><stop offset="1"/></radialGradient><radialGradient id="paint18_radial" cx="0" cy="0" r="1" gradientUnits="userSpaceOnUse" gradientTransform="matrix(4.55765 0 0 3.88399 815.763 303.676)"><stop offset=".564" stop-color="#7000B2"/><stop offset=".638" stop-color="#6E00AE"/><stop offset=".704" stop-color="#6700A4"/><stop offset=".766" stop-color="#5C0092"/><stop offset=".827" stop-color="#4C0078"/><stop offset=".886" stop-color="#370057"/><stop offset=".943" stop-color="#1E002F"/><stop offset=".999" stop-color="#000001"/><stop offset="1"/></radialGradient><radialGradient id="paint19_radial" cx="0" cy="0" r="1" gradientUnits="userSpaceOnUse" gradientTransform="matrix(4.55749 0 0 3.88383 75.492 98.848)"><stop offset=".564" stop-color="#7000B2"/><stop offset=".638" stop-color="#6E00AE"/><stop offset=".704" stop-color="#6700A4"/><stop offset=".766" stop-color="#5C0092"/><stop offset=".827" stop-color="#4C0078"/><stop offset=".886" stop-color="#370057"/><stop offset=".943" stop-color="#1E002F"/><stop offset=".999" stop-color="#000001"/><stop offset="1"/></radialGradient><radialGradient id="paint20_radial" cx="0" cy="0" r="1" gradientUnits="userSpaceOnUse" gradientTransform="matrix(4.5575 0 0 3.88383 1019.71 294.188)"><stop offset=".564" stop-color="#F50000"/><stop offset=".628" stop-color="#F10000"/><stop offset=".685" stop-color="#E70000"/><stop offset=".739" stop-color="#D50000"/><stop offset=".792" stop-color="#B00"/><stop offset=".843" stop-color="#9A0000"/><stop offset=".893" stop-color="#720000"/><stop offset=".943" stop-color="#420000"/><stop offset=".991" stop-color="#0C0000"/><stop offset="1"/></radialGradient><radialGradient id="paint21_radial" cx="0" cy="0" r="1" gradientUnits="userSpaceOnUse" gradientTransform="matrix(4.55753 0 0 3.88382 986.804 332.44)"><stop offset=".564" stop-color="#F50000"/><stop offset=".628" stop-color="#F10000"/><stop offset=".685" stop-color="#E70000"/><stop offset=".739" stop-color="#D50000"/><stop offset=".792" stop-color="#B00"/><stop offset=".843" stop-color="#9A0000"/><stop offset=".893" stop-color="#720000"/><stop offset=".943" stop-color="#420000"/><stop offset=".991" stop-color="#0C0000"/><stop offset="1"/></radialGradient><radialGradient id="paint22_radial" cx="0" cy="0" r="1" gradientUnits="userSpaceOnUse" gradientTransform="matrix(10.1457 0 0 8.64604 1117.45 413.151)"><stop offset=".564" stop-color="#6E008B"/><stop offset=".647" stop-color="#6B0087"/><stop offset=".72" stop-color="#63007D"/><stop offset=".79" stop-color="#54006B"/><stop offset=".858" stop-color="#400051"/><stop offset=".924" stop-color="#260030"/><stop offset=".988" stop-color="#070008"/><stop offset="1"/></radialGradient><radialGradient id="paint23_radial" cx="0" cy="0" r="1" gradientUnits="userSpaceOnUse" gradientTransform="matrix(10.1457 0 0 8.64602 948.797 519.413)"><stop offset=".564" stop-color="#EA8100"/><stop offset=".63" stop-color="#E67F00"/><stop offset=".688" stop-color="#DC7900"/><stop offset=".743" stop-color="#CA6F00"/><stop offset=".796" stop-color="#B06100"/><stop offset=".849" stop-color="#8F4F00"/><stop offset=".9" stop-color="#673900"/><stop offset=".95" stop-color="#371F00"/><stop offset=".999" stop-color="#010100"/><stop offset="1"/></radialGradient><radialGradient id="paint24_radial" cx="0" cy="0" r="1" gradientUnits="userSpaceOnUse" gradientTransform="matrix(4.55743 0 0 3.88382 1094.95 482.922)"><stop offset=".564" stop-color="#7000B2"/><stop offset=".638" stop-color="#6E00AE"/><stop offset=".704" stop-color="#6700A4"/><stop offset=".766" stop-color="#5C0092"/><stop offset=".827" stop-color="#4C0078"/><stop offset=".886" stop-color="#370057"/><stop offset=".943" stop-color="#1E002F"/><stop offset=".999" stop-color="#000001"/><stop offset="1"/></radialGradient><radialGradient id="paint25_radial" cx="0" cy="0" r="1" gradientUnits="userSpaceOnUse" gradientTransform="matrix(4.55753 0 0 3.8838 1015.15 466.823)"><stop offset=".564" stop-color="#7000B2"/><stop offset=".638" stop-color="#6E00AE"/><stop offset=".704" stop-color="#6700A4"/><stop offset=".766" stop-color="#5C0092"/><stop offset=".827" stop-color="#4C0078"/><stop offset=".886" stop-color="#370057"/><stop offset=".943" stop-color="#1E002F"/><stop offset=".999" stop-color="#000001"/><stop offset="1"/></radialGradient><radialGradient id="paint26_radial" cx="0" cy="0" r="1" gradientUnits="userSpaceOnUse" gradientTransform="matrix(4.5575 0 0 3.88382 458.448 237.419)"><stop offset=".564" stop-color="#F50000"/><stop offset=".628" stop-color="#F10000"/><stop offset=".685" stop-color="#E70000"/><stop offset=".739" stop-color="#D50000"/><stop offset=".792" stop-color="#B00"/><stop offset=".843" stop-color="#9A0000"/><stop offset=".893" stop-color="#720000"/><stop offset=".943" stop-color="#420000"/><stop offset=".991" stop-color="#0C0000"/><stop offset="1"/></radialGradient><radialGradient id="paint27_radial" cx="0" cy="0" r="1" gradientUnits="userSpaceOnUse" gradientTransform="matrix(4.5575 0 0 3.88383 425.541 275.671)"><stop offset=".564" stop-color="#F50000"/><stop offset=".628" stop-color="#F10000"/><stop offset=".685" stop-color="#E70000"/><stop offset=".739" stop-color="#D50000"/><stop offset=".792" stop-color="#B00"/><stop offset=".843" stop-color="#9A0000"/><stop offset=".893" stop-color="#720000"/><stop offset=".943" stop-color="#420000"/><stop offset=".991" stop-color="#0C0000"/><stop offset="1"/></radialGradient><radialGradient id="paint28_radial" cx="0" cy="0" r="1" gradientUnits="userSpaceOnUse" gradientTransform="matrix(10.1459 0 0 8.64617 537.152 8.646)"><stop offset=".564" stop-color="#EA8100"/><stop offset=".63" stop-color="#E67F00"/><stop offset=".688" stop-color="#DC7900"/><stop offset=".743" stop-color="#CA6F00"/><stop offset=".796" stop-color="#B06100"/><stop offset=".849" stop-color="#8F4F00"/><stop offset=".9" stop-color="#673900"/><stop offset=".95" stop-color="#371F00"/><stop offset=".999" stop-color="#010100"/><stop offset="1"/></radialGradient><radialGradient id="paint29_radial" cx="0" cy="0" r="1" gradientUnits="userSpaceOnUse" gradientTransform="matrix(4.55753 0 0 3.88382 775.899 17.292)"><stop offset=".564" stop-color="#7000B2"/><stop offset=".638" stop-color="#6E00AE"/><stop offset=".704" stop-color="#6700A4"/><stop offset=".766" stop-color="#5C0092"/><stop offset=".827" stop-color="#4C0078"/><stop offset=".886" stop-color="#370057"/><stop offset=".943" stop-color="#1E002F"/><stop offset=".999" stop-color="#000001"/><stop offset="1"/></radialGradient><radialGradient id="paint30_radial" cx="0" cy="0" r="1" gradientUnits="userSpaceOnUse" gradientTransform="matrix(4.55753 0 0 3.88383 687.413 50.356)"><stop offset=".564" stop-color="#7000B2"/><stop offset=".638" stop-color="#6E00AE"/><stop offset=".704" stop-color="#6700A4"/><stop offset=".766" stop-color="#5C0092"/><stop offset=".827" stop-color="#4C0078"/><stop offset=".886" stop-color="#370057"/><stop offset=".943" stop-color="#1E002F"/><stop offset=".999" stop-color="#000001"/><stop offset="1"/></radialGradient><radialGradient id="paint31_radial" cx="0" cy="0" r="1" gradientUnits="userSpaceOnUse" gradientTransform="matrix(4.5575 0 0 3.88382 544.03 56.635)"><stop offset=".564" stop-color="#F50000"/><stop offset=".628" stop-color="#F10000"/><stop offset=".685" stop-color="#E70000"/><stop offset=".739" stop-color="#D50000"/><stop offset=".792" stop-color="#B00"/><stop offset=".843" stop-color="#9A0000"/><stop offset=".893" stop-color="#720000"/><stop offset=".943" stop-color="#420000"/><stop offset=".991" stop-color="#0C0000"/><stop offset="1"/></radialGradient><radialGradient id="paint32_radial" cx="0" cy="0" r="1" gradientUnits="userSpaceOnUse" gradientTransform="matrix(4.55746 0 0 3.88382 533.146 363.75)"><stop offset=".564" stop-color="#F50000"/><stop offset=".628" stop-color="#F10000"/><stop offset=".685" stop-color="#E70000"/><stop offset=".739" stop-color="#D50000"/><stop offset=".792" stop-color="#B00"/><stop offset=".843" stop-color="#9A0000"/><stop offset=".893" stop-color="#720000"/><stop offset=".943" stop-color="#420000"/><stop offset=".991" stop-color="#0C0000"/><stop offset="1"/></radialGradient><radialGradient id="paint33_radial" cx="0" cy="0" r="1" gradientUnits="userSpaceOnUse" gradientTransform="matrix(10.1457 0 0 8.64603 299.714 377.512)"><stop offset=".564" stop-color="#EA8100"/><stop offset=".63" stop-color="#E67F00"/><stop offset=".688" stop-color="#DC7900"/><stop offset=".743" stop-color="#CA6F00"/><stop offset=".796" stop-color="#B06100"/><stop offset=".849" stop-color="#8F4F00"/><stop offset=".9" stop-color="#673900"/><stop offset=".95" stop-color="#371F00"/><stop offset=".999" stop-color="#010100"/><stop offset="1"/></radialGradient><radialGradient id="paint34_radial" cx="0" cy="0" r="1" gradientUnits="userSpaceOnUse" gradientTransform="matrix(10.1457 0 0 8.64602 387.533 462.647)"><stop offset=".564" stop-color="#EA8100"/><stop offset=".63" stop-color="#E67F00"/><stop offset=".688" stop-color="#DC7900"/><stop offset=".743" stop-color="#CA6F00"/><stop offset=".796" stop-color="#B06100"/><stop offset=".849" stop-color="#8F4F00"/><stop offset=".9" stop-color="#673900"/><stop offset=".95" stop-color="#371F00"/><stop offset=".999" stop-color="#010100"/><stop offset="1"/></radialGradient><radialGradient id="paint35_radial" cx="0" cy="0" r="1" gradientUnits="userSpaceOnUse" gradientTransform="matrix(4.55746 0 0 3.88383 453.89 410.052)"><stop offset=".564" stop-color="#7000B2"/><stop offset=".638" stop-color="#6E00AE"/><stop offset=".704" stop-color="#6700A4"/><stop offset=".766" stop-color="#5C0092"/><stop offset=".827" stop-color="#4C0078"/><stop offset=".886" stop-color="#370057"/><stop offset=".943" stop-color="#1E002F"/><stop offset=".999" stop-color="#000001"/><stop offset="1"/></radialGradient><radialGradient id="paint36_radial" cx="0" cy="0" r="1" gradientUnits="userSpaceOnUse" gradientTransform="matrix(23.2955 0 0 19.8521 23.296 501.603)"><stop offset=".564" stop-color="#B82B00"/><stop offset=".637" stop-color="#B42A00"/><stop offset=".702" stop-color="#AA2800"/><stop offset=".763" stop-color="#982300"/><stop offset=".823" stop-color="#7E1D00"/><stop offset=".881" stop-color="#5D1600"/><stop offset=".938" stop-color="#350C00"/><stop offset=".994" stop-color="#060100"/><stop offset="1"/></radialGradient><radialGradient id="paint37_radial" cx="0" cy="0" r="1" gradientUnits="userSpaceOnUse" gradientTransform="matrix(20.2916 0 0 17.2922 199.501 478.396)"><stop offset=".564" stop-color="#B82B00"/><stop offset=".637" stop-color="#B42A00"/><stop offset=".702" stop-color="#AA2800"/><stop offset=".763" stop-color="#982300"/><stop offset=".823" stop-color="#7E1D00"/><stop offset=".881" stop-color="#5D1600"/><stop offset=".938" stop-color="#350C00"/><stop offset=".994" stop-color="#060100"/><stop offset="1"/></radialGradient><radialGradient id="paint38_radial" cx="0" cy="0" r="1" gradientUnits="userSpaceOnUse" gradientTransform="matrix(10.1457 0 0 8.64604 446.427 608.353)"><stop offset=".564" stop-color="#F50000"/><stop offset=".628" stop-color="#F10000"/><stop offset=".685" stop-color="#E70000"/><stop offset=".739" stop-color="#D50000"/><stop offset=".792" stop-color="#B00"/><stop offset=".843" stop-color="#9A0000"/><stop offset=".893" stop-color="#720000"/><stop offset=".943" stop-color="#420000"/><stop offset=".991" stop-color="#0C0000"/><stop offset="1"/></radialGradient><radialGradient id="paint39_radial" cx="0" cy="0" r="1" gradientUnits="userSpaceOnUse" gradientTransform="matrix(10.1457 0 0 8.64601 557.577 521.456)"><stop offset=".564" stop-color="#EA8100"/><stop offset=".63" stop-color="#E67F00"/><stop offset=".688" stop-color="#DC7900"/><stop offset=".743" stop-color="#CA6F00"/><stop offset=".796" stop-color="#B06100"/><stop offset=".849" stop-color="#8F4F00"/><stop offset=".9" stop-color="#673900"/><stop offset=".95" stop-color="#371F00"/><stop offset=".999" stop-color="#010100"/><stop offset="1"/></radialGradient><radialGradient id="paint40_radial" cx="0" cy="0" r="1" gradientUnits="userSpaceOnUse" gradientTransform="matrix(10.1457 0 0 8.64601 219.792 591.061)"><stop offset=".564" stop-color="#EA8100"/><stop offset=".63" stop-color="#E67F00"/><stop offset=".688" stop-color="#DC7900"/><stop offset=".743" stop-color="#CA6F00"/><stop offset=".796" stop-color="#B06100"/><stop offset=".849" stop-color="#8F4F00"/><stop offset=".9" stop-color="#673900"/><stop offset=".95" stop-color="#371F00"/><stop offset=".999" stop-color="#010100"/><stop offset="1"/></radialGradient><radialGradient id="paint41_radial" cx="0" cy="0" r="1" gradientUnits="userSpaceOnUse" gradientTransform="matrix(10.1455 0 0 8.64588 432.704 522.912)"><stop offset=".564" stop-color="#EA8100"/><stop offset=".63" stop-color="#E67F00"/><stop offset=".688" stop-color="#DC7900"/><stop offset=".743" stop-color="#CA6F00"/><stop offset=".796" stop-color="#B06100"/><stop offset=".849" stop-color="#8F4F00"/><stop offset=".9" stop-color="#673900"/><stop offset=".95" stop-color="#371F00"/><stop offset=".999" stop-color="#010100"/><stop offset="1"/></radialGradient><radialGradient id="paint42_radial" cx="0" cy="0" r="1" gradientUnits="userSpaceOnUse" gradientTransform="matrix(10.1457 0 0 8.64604 520.522 608.047)"><stop offset=".564" stop-color="#EA8100"/><stop offset=".63" stop-color="#E67F00"/><stop offset=".688" stop-color="#DC7900"/><stop offset=".743" stop-color="#CA6F00"/><stop offset=".796" stop-color="#B06100"/><stop offset=".849" stop-color="#8F4F00"/><stop offset=".9" stop-color="#673900"/><stop offset=".95" stop-color="#371F00"/><stop offset=".999" stop-color="#010100"/><stop offset="1"/></radialGradient><radialGradient id="paint43_radial" cx="0" cy="0" r="1" gradientUnits="userSpaceOnUse" gradientTransform="matrix(4.5575 0 0 3.88382 586.88 555.456)"><stop offset=".564" stop-color="#7000B2"/><stop offset=".638" stop-color="#6E00AE"/><stop offset=".704" stop-color="#6700A4"/><stop offset=".766" stop-color="#5C0092"/><stop offset=".827" stop-color="#4C0078"/><stop offset=".886" stop-color="#370057"/><stop offset=".943" stop-color="#1E002F"/><stop offset=".999" stop-color="#000001"/><stop offset="1"/></radialGradient><radialGradient id="paint44_radial" cx="0" cy="0" r="1" gradientUnits="userSpaceOnUse" gradientTransform="matrix(4.5575 0 0 3.88383 437.262 432.33)"><stop offset=".564" stop-color="#7000B2"/><stop offset=".638" stop-color="#6E00AE"/><stop offset=".704" stop-color="#6700A4"/><stop offset=".766" stop-color="#5C0092"/><stop offset=".827" stop-color="#4C0078"/><stop offset=".886" stop-color="#370057"/><stop offset=".943" stop-color="#1E002F"/><stop offset=".999" stop-color="#000001"/><stop offset="1"/></radialGradient><radialGradient id="paint45_radial" cx="0" cy="0" r="1" gradientUnits="userSpaceOnUse" gradientTransform="matrix(10.1455 0 0 8.64587 127.914 445.017)"><stop offset=".564" stop-color="#6E008B"/><stop offset=".647" stop-color="#6B0087"/><stop offset=".72" stop-color="#63007D"/><stop offset=".79" stop-color="#54006B"/><stop offset=".858" stop-color="#400051"/><stop offset=".924" stop-color="#260030"/><stop offset=".988" stop-color="#070008"/><stop offset="1"/></radialGradient><radialGradient id="paint46_radial" cx="0" cy="0" r="1" gradientUnits="userSpaceOnUse" gradientTransform="matrix(4.55749 0 0 3.88383 105.409 514.788)"><stop offset=".564" stop-color="#7000B2"/><stop offset=".638" stop-color="#6E00AE"/><stop offset=".704" stop-color="#6700A4"/><stop offset=".766" stop-color="#5C0092"/><stop offset=".827" stop-color="#4C0078"/><stop offset=".886" stop-color="#370057"/><stop offset=".943" stop-color="#1E002F"/><stop offset=".999" stop-color="#000001"/><stop offset="1"/></radialGradient><radialGradient id="paint47_radial" cx="0" cy="0" r="1" gradientUnits="userSpaceOnUse" gradientTransform="matrix(4.55749 0 0 3.88383 25.616 498.685)"><stop offset=".564" stop-color="#7000B2"/><stop offset=".638" stop-color="#6E00AE"/><stop offset=".704" stop-color="#6700A4"/><stop offset=".766" stop-color="#5C0092"/><stop offset=".827" stop-color="#4C0078"/><stop offset=".886" stop-color="#370057"/><stop offset=".943" stop-color="#1E002F"/><stop offset=".999" stop-color="#000001"/><stop offset="1"/></radialGradient><radialGradient id="paint48_radial" cx="0" cy="0" r="1" gradientUnits="userSpaceOnUse" gradientTransform="matrix(-23.2966 0 0 -19.853 1246.26 522.871)"><stop offset=".564" stop-color="#B82B00"/><stop offset=".637" stop-color="#B42A00"/><stop offset=".702" stop-color="#AA2800"/><stop offset=".763" stop-color="#982300"/><stop offset=".823" stop-color="#7E1D00"/><stop offset=".881" stop-color="#5D1600"/><stop offset=".938" stop-color="#350C00"/><stop offset=".994" stop-color="#060100"/><stop offset="1"/></radialGradient><radialGradient id="paint49_radial" cx="0" cy="0" r="1" gradientUnits="userSpaceOnUse" gradientTransform="matrix(-20.2916 0 0 -17.2922 1070.06 546.077)"><stop offset=".564" stop-color="#B82B00"/><stop offset=".637" stop-color="#B42A00"/><stop offset=".702" stop-color="#AA2800"/><stop offset=".763" stop-color="#982300"/><stop offset=".823" stop-color="#7E1D00"/><stop offset=".881" stop-color="#5D1600"/><stop offset=".938" stop-color="#350C00"/><stop offset=".994" stop-color="#060100"/><stop offset="1"/></radialGradient><radialGradient id="paint50_radial" cx="0" cy="0" r="1" gradientUnits="userSpaceOnUse" gradientTransform="matrix(-10.1457 0 0 -8.64601 711.982 503.017)"><stop offset=".564" stop-color="#EA8100"/><stop offset=".63" stop-color="#E67F00"/><stop offset=".688" stop-color="#DC7900"/><stop offset=".743" stop-color="#CA6F00"/><stop offset=".796" stop-color="#B06100"/><stop offset=".849" stop-color="#8F4F00"/><stop offset=".9" stop-color="#673900"/><stop offset=".95" stop-color="#371F00"/><stop offset=".999" stop-color="#010100"/><stop offset="1"/></radialGradient><radialGradient id="paint51_radial" cx="0" cy="0" r="1" gradientUnits="userSpaceOnUse" gradientTransform="matrix(-10.1438 0 0 -8.64445 1049.76 433.413)"><stop offset=".564" stop-color="#EA8100"/><stop offset=".63" stop-color="#E67F00"/><stop offset=".688" stop-color="#DC7900"/><stop offset=".743" stop-color="#CA6F00"/><stop offset=".796" stop-color="#B06100"/><stop offset=".849" stop-color="#8F4F00"/><stop offset=".9" stop-color="#673900"/><stop offset=".95" stop-color="#371F00"/><stop offset=".999" stop-color="#010100"/><stop offset="1"/></radialGradient><radialGradient id="paint52_radial" cx="0" cy="0" r="1" gradientUnits="userSpaceOnUse" gradientTransform="matrix(-10.1457 0 0 -8.64602 836.854 501.56)"><stop offset=".564" stop-color="#EA8100"/><stop offset=".63" stop-color="#E67F00"/><stop offset=".688" stop-color="#DC7900"/><stop offset=".743" stop-color="#CA6F00"/><stop offset=".796" stop-color="#B06100"/><stop offset=".849" stop-color="#8F4F00"/><stop offset=".9" stop-color="#673900"/><stop offset=".95" stop-color="#371F00"/><stop offset=".999" stop-color="#010100"/><stop offset="1"/></radialGradient><radialGradient id="paint53_radial" cx="0" cy="0" r="1" gradientUnits="userSpaceOnUse" gradientTransform="matrix(-4.55753 0 0 -3.88382 832.294 592.143)"><stop offset=".564" stop-color="#7000B2"/><stop offset=".638" stop-color="#6E00AE"/><stop offset=".704" stop-color="#6700A4"/><stop offset=".766" stop-color="#5C0092"/><stop offset=".827" stop-color="#4C0078"/><stop offset=".886" stop-color="#370057"/><stop offset=".943" stop-color="#1E002F"/><stop offset=".999" stop-color="#000001"/><stop offset="1"/></radialGradient><radialGradient id="paint54_radial" cx="0" cy="0" r="1" gradientUnits="userSpaceOnUse" gradientTransform="matrix(-10.1457 0 0 -8.64601 1141.64 579.459)"><stop offset=".564" stop-color="#6E008B"/><stop offset=".647" stop-color="#6B0087"/><stop offset=".72" stop-color="#63007D"/><stop offset=".79" stop-color="#54006B"/><stop offset=".858" stop-color="#400051"/><stop offset=".924" stop-color="#260030"/><stop offset=".988" stop-color="#070008"/><stop offset="1"/></radialGradient><radialGradient id="paint55_radial" cx="0" cy="0" r="1" gradientUnits="userSpaceOnUse" gradientTransform="matrix(-4.5575 0 0 -3.88385 1164.15 509.688)"><stop offset=".564" stop-color="#7000B2"/><stop offset=".638" stop-color="#6E00AE"/><stop offset=".704" stop-color="#6700A4"/><stop offset=".766" stop-color="#5C0092"/><stop offset=".827" stop-color="#4C0078"/><stop offset=".886" stop-color="#370057"/><stop offset=".943" stop-color="#1E002F"/><stop offset=".999" stop-color="#000001"/><stop offset="1"/></radialGradient><radialGradient id="paint56_radial" cx="0" cy="0" r="1" gradientUnits="userSpaceOnUse" gradientTransform="matrix(-4.55743 0 0 -3.88382 1243.94 525.788)"><stop offset=".564" stop-color="#7000B2"/><stop offset=".638" stop-color="#6E00AE"/><stop offset=".704" stop-color="#6700A4"/><stop offset=".766" stop-color="#5C0092"/><stop offset=".827" stop-color="#4C0078"/><stop offset=".886" stop-color="#370057"/><stop offset=".943" stop-color="#1E002F"/><stop offset=".999" stop-color="#000001"/><stop offset="1"/></radialGradient><radialGradient id="paint57_radial" cx="0" cy="0" r="1" gradientUnits="userSpaceOnUse" gradientTransform="matrix(4.5575 0 0 3.88382 304.272 286.93)"><stop offset=".564" stop-color="#7000B2"/><stop offset=".638" stop-color="#6E00AE"/><stop offset=".704" stop-color="#6700A4"/><stop offset=".766" stop-color="#5C0092"/><stop offset=".827" stop-color="#4C0078"/><stop offset=".886" stop-color="#370057"/><stop offset=".943" stop-color="#1E002F"/><stop offset=".999" stop-color="#000001"/><stop offset="1"/></radialGradient><clipPath id="clip0"><path fill="#fff" d="M0 0h1329v617H0z"/></clipPath></defs></svg>